<?xml version="1.0" encoding="UTF-8"?>
<svg xmlns="http://www.w3.org/2000/svg" viewBox="4.69 5.31 102.69 9.26" preserveAspectRatio="none">
  <defs>
    <style>
      .cls-1 {
        isolation: isolate;
      }

      .cls-2 {
        fill: #b35c5c;
        mix-blend-mode: multiply;
        opacity: .5;
      }

      .cls-2, .cls-3 {
        stroke-width: 0px;
      }

      .cls-3 {
        fill: #de6547;
      }
    </style>
  </defs>
  <g class="cls-1">
    <g id="pirate_game_ui" data-name="pirate game ui">
      <g>
        <path class="cls-3" d="m102.75,14.57H9.32c-2.55,0-4.63-2.08-4.63-4.63h0c0-2.55,2.08-4.63,4.63-4.63h93.43c2.55,0,4.63,2.08,4.63,4.63h0c0,2.55-2.08,4.63-4.63,4.63Z"/>
        <path class="cls-2" d="m107.38,9.94c0,.29-.03.57-.08.84-.4-2.15-2.29-3.79-4.55-3.79H9.32c-1.27,0-2.43.52-3.27,1.36-.65.65-1.1,1.49-1.28,2.43-.05-.27-.08-.55-.08-.84,0-1.27.52-2.43,1.36-3.27.84-.84,1.99-1.36,3.27-1.36h93.44c2.54,0,4.63,2.09,4.63,4.63Z"/>
      </g>
    </g>
  </g>
</svg>