<?xml version="1.0" encoding="UTF-8"?>
<svg xmlns="http://www.w3.org/2000/svg" xmlns:xlink="http://www.w3.org/1999/xlink" viewBox="0 0 252.26 183.83">
  <defs>
    <style>
      .cls-1 {
        fill: #5e192a;
      }

      .cls-1, .cls-2, .cls-3, .cls-4, .cls-5, .cls-6, .cls-7, .cls-8, .cls-9, .cls-10, .cls-11, .cls-12, .cls-13, .cls-14, .cls-15, .cls-16, .cls-17, .cls-18, .cls-19, .cls-20, .cls-21, .cls-22, .cls-23, .cls-24, .cls-25, .cls-26, .cls-27, .cls-28, .cls-29, .cls-30, .cls-31, .cls-32, .cls-33, .cls-34, .cls-35 {
        stroke-width: 0px;
      }

      .cls-2 {
        fill: url(#_Áåçûìÿííûé_ãðàäèåíò_77-6);
      }

      .cls-3 {
        fill: url(#_Áåçûìÿííûé_ãðàäèåíò_271-2);
      }

      .cls-3, .cls-7, .cls-11, .cls-12, .cls-15, .cls-19, .cls-23, .cls-25, .cls-27, .cls-28, .cls-31, .cls-35 {
        mix-blend-mode: multiply;
      }

      .cls-3, .cls-11, .cls-12, .cls-19 {
        opacity: .6;
      }

      .cls-4 {
        fill: url(#_Áåçûìÿííûé_ãðàäèåíò_83-4);
      }

      .cls-5 {
        fill: #897493;
      }

      .cls-6 {
        fill: url(#_Áåçûìÿííûé_ãðàäèåíò_83);
      }

      .cls-7 {
        fill: url(#_Áåçûìÿííûé_ãðàäèåíò_271-9);
      }

      .cls-7, .cls-27, .cls-28 {
        opacity: .8;
      }

      .cls-8 {
        fill: url(#_Áåçûìÿííûé_ãðàäèåíò_77-3);
      }

      .cls-9 {
        fill: url(#_Áåçûìÿííûé_ãðàäèåíò_82);
      }

      .cls-10 {
        fill: url(#_Áåçûìÿííûé_ãðàäèåíò_77-4);
      }

      .cls-11 {
        fill: url(#_Áåçûìÿííûé_ãðàäèåíò_271);
      }

      .cls-12 {
        fill: url(#_Áåçûìÿííûé_ãðàäèåíò_271-4);
      }

      .cls-36 {
        isolation: isolate;
      }

      .cls-13 {
        fill: url(#_Áåçûìÿííûé_ãðàäèåíò_77-5);
      }

      .cls-14 {
        fill: url(#_Áåçûìÿííûé_ãðàäèåíò_163-4);
      }

      .cls-14, .cls-17, .cls-24, .cls-29 {
        mix-blend-mode: screen;
        opacity: .9;
      }

      .cls-15 {
        fill: url(#_Áåçûìÿííûé_ãðàäèåíò_14);
        opacity: .4;
      }

      .cls-16 {
        fill: url(#_Áåçûìÿííûé_ãðàäèåíò_77-7);
      }

      .cls-17 {
        fill: url(#_Áåçûìÿííûé_ãðàäèåíò_163-3);
      }

      .cls-18 {
        fill: url(#_Áåçûìÿííûé_ãðàäèåíò_82-2);
      }

      .cls-19 {
        fill: url(#_Áåçûìÿííûé_ãðàäèåíò_271-3);
      }

      .cls-20 {
        fill: #ffc661;
      }

      .cls-21 {
        fill: url(#_Áåçûìÿííûé_ãðàäèåíò_83-2);
      }

      .cls-22 {
        fill: #fff;
      }

      .cls-23 {
        fill: url(#_Áåçûìÿííûé_ãðàäèåíò_271-7);
      }

      .cls-23, .cls-25, .cls-35 {
        opacity: .3;
      }

      .cls-24 {
        fill: url(#_Áåçûìÿííûé_ãðàäèåíò_163-2);
      }

      .cls-25 {
        fill: url(#_Áåçûìÿííûé_ãðàäèåíò_271-6);
      }

      .cls-26 {
        fill: url(#_Áåçûìÿííûé_ãðàäèåíò_83-5);
      }

      .cls-27 {
        fill: url(#_Áåçûìÿííûé_ãðàäèåíò_271-10);
      }

      .cls-28 {
        fill: url(#_Áåçûìÿííûé_ãðàäèåíò_271-8);
      }

      .cls-29 {
        fill: url(#_Áåçûìÿííûé_ãðàäèåíò_163);
      }

      .cls-30 {
        fill: url(#_Áåçûìÿííûé_ãðàäèåíò_77);
      }

      .cls-31 {
        fill: url(#_Áåçûìÿííûé_ãðàäèåíò_122);
        opacity: .5;
      }

      .cls-32 {
        fill: #ffa945;
      }

      .cls-33 {
        fill: url(#_Áåçûìÿííûé_ãðàäèåíò_77-2);
      }

      .cls-34 {
        fill: url(#_Áåçûìÿííûé_ãðàäèåíò_83-3);
      }

      .cls-35 {
        fill: url(#_Áåçûìÿííûé_ãðàäèåíò_271-5);
      }
    </style>
    <linearGradient id="_Áåçûìÿííûé_ãðàäèåíò_82" data-name="Áåçûìÿííûé ãðàäèåíò 82" x1="30.56" y1="65.25" x2="219.3" y2="65.25" gradientUnits="userSpaceOnUse">
      <stop offset="0" stop-color="#f18e36"/>
      <stop offset="1" stop-color="#db6221"/>
    </linearGradient>
    <linearGradient id="_Áåçûìÿííûé_ãðàäèåíò_77" data-name="Áåçûìÿííûé ãðàäèåíò 77" x1="32.28" y1="128.22" x2="221.67" y2="128.22" gradientUnits="userSpaceOnUse">
      <stop offset=".02" stop-color="#d86a39"/>
      <stop offset=".99" stop-color="#971c36"/>
    </linearGradient>
    <linearGradient id="_Áåçûìÿííûé_ãðàäèåíò_82-2" data-name="Áåçûìÿííûé ãðàäèåíò 82" x1="32.28" y1="128.07" x2="162.29" y2="128.07" xlink:href="#_Áåçûìÿííûé_ãðàäèåíò_82"/>
    <linearGradient id="_Áåçûìÿííûé_ãðàäèåíò_77-2" data-name="Áåçûìÿííûé ãðàäèåíò 77" x1="115.41" y1="-15.75" x2="246.22" y2="124.23" xlink:href="#_Áåçûìÿííûé_ãðàäèåíò_77"/>
    <linearGradient id="_Áåçûìÿííûé_ãðàäèåíò_77-3" data-name="Áåçûìÿííûé ãðàäèåíò 77" x1="97.03" y1="160.23" x2="100.81" y2="107.98" xlink:href="#_Áåçûìÿííûé_ãðàäèåíò_77"/>
    <linearGradient id="_Áåçûìÿííûé_ãðàäèåíò_77-4" data-name="Áåçûìÿííûé ãðàäèåíò 77" x1="-13.76" y1="25.7" x2="37.76" y2="100.32" xlink:href="#_Áåçûìÿííûé_ãðàäèåíò_77"/>
    <linearGradient id="_Áåçûìÿííûé_ãðàäèåíò_77-5" data-name="Áåçûìÿííûé ãðàäèåíò 77" x1="153.3" y1="193.48" x2="181.96" y2="138.92" xlink:href="#_Áåçûìÿííûé_ãðàäèåíò_77"/>
    <linearGradient id="_Áåçûìÿííûé_ãðàäèåíò_271" data-name="Áåçûìÿííûé ãðàäèåíò 271" x1="179.14" y1="164.42" x2="209.98" y2="118.74" gradientUnits="userSpaceOnUse">
      <stop offset="0" stop-color="#fff"/>
      <stop offset=".98" stop-color="#aa0038"/>
    </linearGradient>
    <linearGradient id="_Áåçûìÿííûé_ãðàäèåíò_77-6" data-name="Áåçûìÿííûé ãðàäèåíò 77" x1="180.19" y1="138.96" x2="186.4" y2="157.68" xlink:href="#_Áåçûìÿííûé_ãðàäèåíò_77"/>
    <linearGradient id="_Áåçûìÿííûé_ãðàäèåíò_77-7" data-name="Áåçûìÿííûé ãðàäèåíò 77" x1="222.19" y1="147.13" x2="205.25" y2="94.66" xlink:href="#_Áåçûìÿííûé_ãðàäèåíò_77"/>
    <linearGradient id="_Áåçûìÿííûé_ãðàäèåíò_271-2" data-name="Áåçûìÿííûé ãðàäèåíò 271" x1="237.99" y1="142.03" x2="221.06" y2="89.55" xlink:href="#_Áåçûìÿííûé_ãðàäèåíò_271"/>
    <linearGradient id="_Áåçûìÿííûé_ãðàäèåíò_271-3" data-name="Áåçûìÿííûé ãðàäèåíò 271" x1="153.77" y1="30.16" x2="52.09" y2="121.52" xlink:href="#_Áåçûìÿííûé_ãðàäèåíò_271"/>
    <linearGradient id="_Áåçûìÿííûé_ãðàäèåíò_83" data-name="Áåçûìÿííûé ãðàäèåíò 83" x1="60.11" y1="170.43" x2="71.98" y2="140.17" gradientUnits="userSpaceOnUse">
      <stop offset="0" stop-color="#f7e2d1"/>
      <stop offset="1" stop-color="#a58caf"/>
    </linearGradient>
    <linearGradient id="_Áåçûìÿííûé_ãðàäèåíò_83-2" data-name="Áåçûìÿííûé ãðàäèåíò 83" x1="146" y1="164.81" x2="154.14" y2="144.05" xlink:href="#_Áåçûìÿííûé_ãðàäèåíò_83"/>
    <linearGradient id="_Áåçûìÿííûé_ãðàäèåíò_14" data-name="Áåçûìÿííûé ãðàäèåíò 14" x1="148.78" y1="123.1" x2="176.59" y2="150.78" gradientUnits="userSpaceOnUse">
      <stop offset="0" stop-color="#fff"/>
      <stop offset=".98" stop-color="#720090"/>
    </linearGradient>
    <linearGradient id="_Áåçûìÿííûé_ãðàäèåíò_163" data-name="Áåçûìÿííûé ãðàäèåíò 163" x1="82.63" y1="156.12" x2="86.84" y2="145.38" gradientUnits="userSpaceOnUse">
      <stop offset="0" stop-color="#ffde6a"/>
      <stop offset="1" stop-color="#000"/>
    </linearGradient>
    <linearGradient id="_Áåçûìÿííûé_ãðàäèåíò_271-4" data-name="Áåçûìÿííûé ãðàäèåíò 271" x1="152.45" y1="48.06" x2="204.17" y2="48.06" xlink:href="#_Áåçûìÿííûé_ãðàäèåíò_271"/>
    <linearGradient id="_Áåçûìÿííûé_ãðàäèåíò_271-5" data-name="Áåçûìÿííûé ãðàäèåíò 271" x1="34.1" y1="70.85" x2="39.7" y2="70.85" xlink:href="#_Áåçûìÿííûé_ãðàäèåíò_271"/>
    <linearGradient id="_Áåçûìÿííûé_ãðàäèåíò_271-6" data-name="Áåçûìÿííûé ãðàäèåíò 271" x1="31.57" y1="84.66" x2="111.97" y2="84.66" xlink:href="#_Áåçûìÿííûé_ãðàäèåíò_271"/>
    <linearGradient id="_Áåçûìÿííûé_ãðàäèåíò_163-2" data-name="Áåçûìÿííûé ãðàäèåíò 163" x1="115.65" y1="-23.69" x2="116.47" y2="51.41" xlink:href="#_Áåçûìÿííûé_ãðàäèåíò_163"/>
    <linearGradient id="_Áåçûìÿííûé_ãðàäèåíò_271-7" data-name="Áåçûìÿííûé ãðàäèåíò 271" x1="36.46" y1="51.02" x2="204.6" y2="51.02" xlink:href="#_Áåçûìÿííûé_ãðàäèåíò_271"/>
    <linearGradient id="_Áåçûìÿííûé_ãðàäèåíò_271-8" data-name="Áåçûìÿííûé ãðàäèåíò 271" x1="159.68" y1="42.4" x2="201.94" y2="106.61" xlink:href="#_Áåçûìÿííûé_ãðàäèåíò_271"/>
    <linearGradient id="_Áåçûìÿííûé_ãðàäèåíò_83-3" data-name="Áåçûìÿííûé ãðàäèåíò 83" x1="141.17" y1="127.95" x2="170.17" y2="188.29" xlink:href="#_Áåçûìÿííûé_ãðàäèåíò_83"/>
    <linearGradient id="_Áåçûìÿííûé_ãðàäèåíò_83-4" data-name="Áåçûìÿííûé ãðàäèåíò 83" x1="75.38" y1="17.7" x2="162.41" y2="114.29" xlink:href="#_Áåçûìÿííûé_ãðàäèåíò_83"/>
    <linearGradient id="_Áåçûìÿííûé_ãðàäèåíò_271-9" data-name="Áåçûìÿííûé ãðàäèåíò 271" x1="106.93" y1="-14.94" x2="156.43" y2="100.55" xlink:href="#_Áåçûìÿííûé_ãðàäèåíò_271"/>
    <linearGradient id="_Áåçûìÿííûé_ãðàäèåíò_83-5" data-name="Áåçûìÿííûé ãðàäèåíò 83" x1="92.49" y1="96.44" x2="91.48" y2="142.63" xlink:href="#_Áåçûìÿííûé_ãðàäèåíò_83"/>
    <linearGradient id="_Áåçûìÿííûé_ãðàäèåíò_122" data-name="Áåçûìÿííûé ãðàäèåíò 122" x1="86.6" y1="113.03" x2="126.18" y2="176.35" gradientUnits="userSpaceOnUse">
      <stop offset=".37" stop-color="#fff"/>
      <stop offset=".44" stop-color="#f1e6ee"/>
      <stop offset=".71" stop-color="#c191b3"/>
      <stop offset=".91" stop-color="#a35b8f"/>
      <stop offset="1" stop-color="#984781"/>
    </linearGradient>
    <linearGradient id="_Áåçûìÿííûé_ãðàäèåíò_271-10" data-name="Áåçûìÿííûé ãðàäèåíò 271" x1="60.65" y1="14.59" x2="106.18" y2="120.82" xlink:href="#_Áåçûìÿííûé_ãðàäèåíò_271"/>
    <linearGradient id="_Áåçûìÿííûé_ãðàäèåíò_163-3" data-name="Áåçûìÿííûé ãðàäèåíò 163" x1="102.14" y1="33.37" x2="123.66" y2="67.7" xlink:href="#_Áåçûìÿííûé_ãðàäèåíò_163"/>
    <linearGradient id="_Áåçûìÿííûé_ãðàäèåíò_163-4" data-name="Áåçûìÿííûé ãðàäèåíò 163" x1="76.94" y1="171.74" x2="138.38" y2="241.68" gradientTransform="translate(33.57 -37.01) rotate(-1.82)" xlink:href="#_Áåçûìÿííûé_ãðàäèåíò_163"/>
  </defs>
  <g class="cls-36">
    <g id="factory_milk" data-name="factory milk">
      <g>
        <polygon class="cls-1" points="221.54 110.6 221.3 110.61 190.61 112.56 162.2 111.87 162.12 111.87 68.13 109.58 54.08 105.65 30.55 99.08 164.13 103.88 164.16 103.88 221.87 105.95 221.59 109.88 221.59 109.89 221.58 110.07 221.54 110.6"/>
        <path class="cls-9" d="m219.3,29.11l-.04.05-15.09,20.46-.12.16-1.91,2.6-10.11,13.7-27.87,37.79-.08.11h0s-45.14-1.66-45.14-1.66l-33.83-1.24-54.55-2.01s.28-4.28,1.01-10.76c.11-.92.22-1.88.34-2.91.54-4.43,1.25-9.69,2.19-15.27v-.05c.23-1.37.48-2.75.73-4.15.09-.43.17-.85.24-1.29.43-2.23.89-4.51,1.39-6.77,2.03-9.19,4.67-18.16,7.93-24.25.51-.97,1.04-1.86,1.58-2.67.39-.59.79-1.13,1.21-1.62,1.13-1.37,2.32-2.36,3.53-2.87,4.01.75,8,1.45,11.97,2.09,20.1,3.19,39.58,4.79,57.62,5.43,19.52.69,37.64.26,52.93-.58,4.27-.24,8.32-.51,12.1-.78,12.45-.93,22.25-2.02,28.07-2.75.89-.11,1.68-.22,2.37-.31,1.87-.24,3.04-.42,3.41-.46.09-.03.13-.03.13-.03Z"/>
        <path class="cls-30" d="m221.67,109.89l-.09.17-.28.54-20.44,40.12-.31.62-38.65-.17-103.61-.46c-.06-.14-.54-.99-1.31-2.36-4.14-7.32-18.35-32.17-23.26-40.73l-.53-.94-.25-.44-.21-.37-.17-.3-.27-.48,21.8.55,96.77,2.45,11.44.29,6.5.16,52.8,1.34h.08Z"/>
        <polygon class="cls-18" points="160.22 151.03 58.29 150.72 33.18 106.69 32.93 106.25 32.72 105.88 32.55 105.58 32.28 105.1 162.29 108.39 160.22 151.03"/>
        <path class="cls-33" d="m221.67,109.89h-.08s-57.52-5.9-57.52-5.9c0,0,0,0,0,0,0-.01.02-.05.05-.1.02-.04.04-.1.08-.17.77-1.59,4.86-10.02,10.86-20.85.01-.02.02-.03.03-.05,4.35-7.86,9.79-17.13,15.63-25.89,3.7-5.54,7.53-10.83,11.29-15.32.72-.86,1.43-1.69,2.14-2.48.14-.15.27-.3.41-.45,4.1-4.52,7.95-7.81,11.19-9.07.59-.24,1.16-.4,1.71-.49.6-.1,1.17-.09,1.7.03.03,0,.07,0,.09.03,16.56,3.87,2.4,80.74,2.4,80.74Z"/>
        <polygon class="cls-8" points="51.96 114.49 48.11 122.11 61 145.52 149.69 146.68 149.36 122.32 142.31 116.28 51.96 114.49"/>
        <path class="cls-32" d="m61,145.52l1.94-2.37c21.84,2.81,86.69,2.37,86.69,2.37l.06,1.16-88.69-1.16Z"/>
        <polygon class="cls-10" points="62.95 143.15 51.77 122.74 55.72 114.83 51.96 114.49 48.03 121.69 61 145.52 62.95 143.15"/>
        <g>
          <path class="cls-13" d="m208.42,125.75c-1.21,2.52-10.06,20.91-9.94,21.32,0,.02-.06.04-.18.05-2.53.31-31.34-.35-31.84-.06.19-.59,2.93-23.76,2.93-23.76l11.17-6.28,21.34,1.89,3.25.29,1.49,2.76,1.91,3.53s-.04.09-.13.26Z"/>
          <path class="cls-11" d="m198.72,147.17c-.02.2-.2.13-.43-.05-.43-.35-1.03-1.1-1.03-1.1l8.9-19.28-4.26-7.83,3.25.29,1.49,2.76,1.78,3.79.13.28s-9.76,20.57-9.83,21.15Z"/>
          <path class="cls-2" d="m166.82,145.46c16.02,1.55,30.83.5,30.83.5l1.24,1.37-31.9-.16-.17-1.71Z"/>
        </g>
        <path class="cls-16" d="m219,104.24l-40.94-5.55s23.57-49.38,35.35-54.29c.48-.21.94-.31,1.36-.32,10.76-.2,4.23,60.16,4.23,60.16Z"/>
        <path class="cls-3" d="m219,104.24s-5-3.04-5.1-2.7c-.09.31,7.59-46.23-.49-57.14.48-.21.94-.31,1.36-.32,10.76-.2,4.23,60.16,4.23,60.16Z"/>
        <path class="cls-19" d="m175.43,82.85s-29.87.89-72.9-4.56c-13.48-1.7-28.48-4.06-44.74-7.31-7.37-1.46-15.03-3.13-22.96-5.02.08-.43.16-.86.24-1.3l140.36,18.18Z"/>
        <path class="cls-5" d="m204.2,150.84l-6.11,13.38h-5.01c-1.8-5.41-14.57-9.9-25.32,0h-12.77c-5.84-2.79-7.33-11.12-45.38-12.2-6.02-.17-11.31-.16-15.93-.02-4.48.13-8.31.4-11.55.73-9.3.96-13.38,10.39-14.44,11.49h-5.59c-.18-.4-6.41-15.91-6.41-15.91l5.32.09h.04l21.25.36,12.73.22,66.07,1.12,1.79.03,37.53.64,3.78.06Z"/>
        <path class="cls-6" d="m82.91,152.13l1.71.09c-2.13.12-4.08.28-5.86.46-9.59.96-13.81,10.44-14.89,11.54h-5.77c-.19-.39-6.66-15.96-6.66-15.96l5.5.09h.03l21.94.36,4.19.07c.03,1.92,0,3.35-.19,3.35Z"/>
        <path class="cls-21" d="m161.9,151.17l.03,13.05h-7.96c-4.15-1.91-6.16-6.46-19.72-9.47l2.82.14.57-5.2,22.63.37,1.85.03-.22,1.08Z"/>
        <path class="cls-15" d="m204.76,150.79l-6.22,13.43h-5.17c-1.9-5.41-15.2-9.9-26.22,0h-5.22l-.03-13.05.22-1.08,38.75.64,3.9.06Z"/>
        <path class="cls-29" d="m92.06,148.93l-1.38,3.02c-4.63.13-8.58.4-11.92.73l.15-3.96,13.14.22Z"/>
        <path class="cls-32" d="m66.62,72.97c12.21,6.58,25.16,4.1,25.16,4.1l-25.16-4.1Z"/>
        <polygon class="cls-12" points="204.01 54.18 204.17 38.57 152.45 40.45 202.02 41.51 202.19 57.54 204.01 54.18"/>
        <polygon class="cls-32" points="145.11 108 162.3 109.89 169.45 108.42 145.11 108"/>
        <path class="cls-35" d="m39.7,71.6c-1.99-.52-3.87-1.01-5.6-1.46,0-.02,0-.03,0-.05,1.76.46,3.63.97,5.6,1.51Z"/>
        <path class="cls-25" d="m111.81,95.15c-3.74,3.7-43.02,4.7-80.24-6.82.1-.92.22-1.89.34-2.9,19.75,4.21,45.94,8.85,47.92,4,2.12-5.18-22-12.85-39.94-17.77,27.68,7.24,75.21,20.23,71.92,23.5Z"/>
        <path class="cls-24" d="m185.33,32.64c-30.32,5.63-90.14,14.08-138.17-3.29,1.13-1.37,2.32-2.35,3.54-2.86,51.58,9.77,102.28,8.54,134.63,6.14Z"/>
        <path class="cls-23" d="m204.01,54.18l-11.28,16.88-.7-4.97-1.39-9.86s-103.45,10.57-154.18,1.66c2.35-10.65,5.52-20.98,9.5-26.91,68.19,17.75,158.64,6.91,158.64,6.91l-.43,11.73-.17,4.56Z"/>
        <path class="cls-28" d="m221.67,109.89l-.09.18-.04.53h-.24s-20.44,40.13-20.44,40.13l-38.74-.64-1.85-.11h-.08l1.07-20.31.94-17.8.1-1.98,6.49-1.34.67-.14-5.38-4.42h0s.03-.06.05-.11c.02-.04.05-.1.08-.17.75-1.59,4.77-10,10.69-20.85.01-.02.02-.05.04-.08,4.35-7.98,9.81-17.43,15.72-26.37,3.53-5.35,7.2-10.49,10.81-14.91.82-1.02,1.65-1.99,2.46-2.91.2-.23.41-.47.61-.69,3.13-3.5,6.14-6.28,8.85-8.01.89-.11,1.68-.21,2.38-.3.59-.23,1.16-.39,1.71-.49.59-.1,1.16-.09,1.69.03.09-.02.13-.03.13-.03l-.03.05c16.56,3.87,2.4,80.74,2.4,80.74Z"/>
        <polygon class="cls-34" points="122.27 149.36 162.5 151.19 181.19 150.48 122.27 149.36"/>
        <path class="cls-5" d="m165.83,33.96s-20.8,5.1-34.32,29.39c-13.52,24.29-14.21,37.35-14.21,37.35l-9.4-1.6s3.21-48.69,20.62-60.84c17.42-12.14,28.7-17.7,28.7-17.7l8.59,13.41Z"/>
        <path class="cls-4" d="m157.24,20.56s-7.23,4.27-15.93,13.1c-8.51,8.66-18.4,21.69-24.25,39.38-3.38,10.2-5.4,21.97-5.02,35.34,1.71,60.15-33.35-4.81-33.35-4.81-.7-16.77.5-30.28,2.69-41.09,1.98-9.79,4.75-17.37,7.63-23.16,6.35-12.75,13.22-16.88,13.22-16.88l54.99-1.88Z"/>
        <path class="cls-7" d="m178.38,33.1c-33.68,7.33-50.87,46.98-54.54,71.49-3.67,24.52-9.17,17.19-9.17,17.19,0,0-12.14-38.96,19.25-80.2,14.26-18.73,31.16-7.79,31.16-7.79l13.29-.69Z"/>
        <g>
          <polygon class="cls-26" points="116.93 95.66 110.19 137.4 69.71 136.77 68.22 101.07 68.05 97.13 80.72 96.75 96.52 96.27 111.55 95.82 116.46 95.67 116.93 95.66"/>
          <path class="cls-1" d="m88.05,107.42c-10.63,1.4-1.76,12.1-1.76,12.1l-4.53,10.06,10.32.08s-.98-9.01-1.07-9.39c-.1-.38,12.17-14.86-2.96-12.86Z"/>
          <polygon class="cls-5" points="69.71 136.77 82.68 139.09 117.54 140.09 121.97 115.8 118.27 115.36 121.54 101.39 116.93 95.66 109.32 136.24 69.71 136.77"/>
          <path class="cls-31" d="m137.64,149.69l-.57,5.2-2.82-.14c-6.19-1.38-14.8-2.43-27.13-2.78-6.21-.17-11.68-.16-16.44-.02-2.17.06-4.18.15-6.06.27l-1.71-.09c.19,0,.22-1.43.19-3.35l8.96.15,45.58.76Z"/>
          <path class="cls-27" d="m141.41,115.04l-3.77,34.65-45.58-.76-8.96-.15c-.07-3.86-.42-9.69-.42-9.69l-12.97-2.32,39.61-.53,8.22,3.85,4.43-24.29-3.7-.44,3.23-15.62,18.85-.23-3.26,15.91,4.32-.38Z"/>
        </g>
        <path class="cls-17" d="m141.31,33.66c-8.51,8.66-18.4,21.69-24.25,39.38l-.09.15c.15-.71,3.39-15.17,1.6-18.08-1.84-2.98-27.05-3.66-30.71-1.83-3.16,1.58-5.82,7.58-6.48,9.21,1.98-9.79,4.75-17.37,7.63-23.16,2.87,5.68,32.08,2.72,37.56,1.58,4.54-.94,12.17-5.61,14.73-7.24Z"/>
        <path class="cls-14" d="m70.88,97.09c9.22,16.87,24.5-.78,24.5-.78l-24.5.78Z"/>
        <path class="cls-22" d="m89.01,40.32c-6.52,26.09,23.03,3.78,20.97-8.94-2.06-12.72-18.56-.69-20.97,8.94Z"/>
        <path class="cls-20" d="m44.38,33.64c.51-.97,1.04-1.86,1.58-2.67.39-.59.79-1.13,1.21-1.62,1.13-1.37,2.32-2.36,3.53-2.87,4.01.75,23.34,3.46,27.31,4.09-13.98-1.6-22,1.37-33.63,3.06Z"/>
        <path class="cls-20" d="m192.9,32.16c9.71-.34,16.24,1.2,16.41,1.46.17.26,11.69-3.87,10.66-4.55-1.03-.69-27.07,3.09-27.07,3.09Z"/>
      </g>
    </g>
  </g>
</svg>